<svg width="51" height="63" viewBox="0 0 51 63" fill="none" xmlns="http://www.w3.org/2000/svg">
<path d="M30.276 17.12C31.02 17.264 31.572 17.516 31.932 17.876C32.316 18.236 32.508 18.656 32.508 19.136C32.508 19.928 32.28 20.504 31.824 20.864C31.392 21.224 30.696 21.368 29.736 21.296C27.576 21.128 25.884 21.02 24.66 20.972C23.46 20.9 21.876 20.852 19.908 20.828C19.02 25.244 18.204 29.684 17.46 34.148C17.196 35.78 16.92 37.676 16.632 39.836C16.344 41.972 16.152 43.7 16.056 45.02C16.008 45.716 15.72 46.256 15.192 46.64C14.664 47 14.028 47.18 13.284 47.18C12.492 47.18 11.88 46.988 11.448 46.604C11.016 46.22 10.8 45.716 10.8 45.092C10.8 44.516 10.884 43.568 11.052 42.248C11.244 40.904 11.46 39.5 11.7 38.036C11.964 36.572 12.168 35.3 12.312 34.22C12.576 32.396 12.876 30.584 13.212 28.784C13.548 26.984 13.884 25.28 14.22 23.672C14.292 23.312 14.376 22.904 14.472 22.448C14.568 21.968 14.676 21.44 14.796 20.864C12.444 20.936 10.596 21.128 9.252 21.44C7.908 21.752 6.948 22.196 6.372 22.772C5.82 23.324 5.544 24.044 5.544 24.932C5.544 25.748 5.784 26.528 6.264 27.272C6.36 27.44 6.408 27.62 6.408 27.812C6.408 28.268 6.132 28.7 5.58 29.108C5.052 29.492 4.5 29.684 3.924 29.684C3.516 29.684 3.18 29.564 2.916 29.324C2.436 28.916 2.04 28.34 1.728 27.596C1.416 26.828 1.26 25.964 1.26 25.004C1.26 22.964 1.92 21.332 3.24 20.108C4.584 18.86 6.612 17.948 9.324 17.372C12.06 16.796 15.564 16.508 19.836 16.508C22.476 16.508 24.576 16.556 26.136 16.652C27.72 16.748 29.1 16.904 30.276 17.12ZM36.8736 47.288C33.6816 47.288 31.1256 46.688 29.2056 45.488C27.2856 44.264 26.3256 42.404 26.3256 39.908C26.3256 38.588 26.5536 37.58 27.0096 36.884C27.4656 36.188 28.1376 35.84 29.0256 35.84C29.6736 35.84 30.2016 36.008 30.6096 36.344C31.0176 36.68 31.2216 37.112 31.2216 37.64C31.2216 38.12 31.1856 38.54 31.1136 38.9C31.1136 38.996 31.0896 39.164 31.0416 39.404C31.0176 39.644 31.0056 39.896 31.0056 40.16C31.0056 41.24 31.5456 42.044 32.6256 42.572C33.7296 43.1 35.2656 43.364 37.2336 43.364C39.2736 43.364 40.8696 43.004 42.0216 42.284C43.1736 41.54 43.7496 40.508 43.7496 39.188C43.7496 38.372 43.4856 37.676 42.9576 37.1C42.4296 36.5 41.7696 36.008 40.9776 35.624C40.1856 35.216 39.0696 34.724 37.6296 34.148C35.7816 33.428 34.2696 32.744 33.0936 32.096C31.9416 31.448 30.9456 30.572 30.1056 29.468C29.2896 28.34 28.8816 26.948 28.8816 25.292C28.8816 23.564 29.3376 22.028 30.2496 20.684C31.1856 19.34 32.5176 18.296 34.2456 17.552C35.9976 16.808 38.0496 16.436 40.4016 16.436C42.1536 16.436 43.7616 16.7 45.2256 17.228C46.6896 17.732 47.8536 18.512 48.7176 19.568C49.6056 20.624 50.0496 21.92 50.0496 23.456C50.0496 24.968 49.8216 26.108 49.3656 26.876C48.9096 27.644 48.2376 28.028 47.3496 28.028C46.7256 28.028 46.1976 27.836 45.7656 27.452C45.3576 27.068 45.1536 26.612 45.1536 26.084C45.1536 25.628 45.1896 25.208 45.2616 24.824C45.3336 24.104 45.3696 23.648 45.3696 23.456C45.3696 22.448 44.8776 21.68 43.8936 21.152C42.9096 20.624 41.6856 20.36 40.2216 20.36C38.1576 20.36 36.5736 20.744 35.4696 21.512C34.3896 22.256 33.8496 23.312 33.8496 24.68C33.8496 25.592 34.1256 26.372 34.6776 27.02C35.2536 27.668 35.9616 28.208 36.8016 28.64C37.6416 29.072 38.8176 29.588 40.3296 30.188C42.1536 30.932 43.6176 31.604 44.7216 32.204C45.8256 32.804 46.7616 33.62 47.5296 34.652C48.3216 35.684 48.7176 36.956 48.7176 38.468C48.7176 41.3 47.6376 43.484 45.4776 45.02C43.3416 46.532 40.4736 47.288 36.8736 47.288Z" fill="white"/>
</svg>
